<svg xmlns="http://www.w3.org/2000/svg" viewBox="0 0 305.21 199.38"><title>Asset 4</title><g id="Layer_2" data-name="Layer 2"><g id="Layer_1-2" data-name="Layer 1"><path d="M70.14,196.88c-12.13,0-22.19-2.12-29.91-6.3-8.21-4.45-12.38-12-12.38-22.53a35.91,35.91,0,0,1,.22-4.43l3.89-37a26.22,26.22,0,0,0,.19-3.64A13.15,13.15,0,0,0,30,115.11c-1.41-1.94-4-3.48-7.8-4.58-4.08-1.2-9.86-1.81-17.19-1.81H2.5V90.66H5c7.34,0,13.13-.59,17.21-1.76C26,87.83,28.58,86.3,30,84.37a13,13,0,0,0,2.16-7.79A27.58,27.58,0,0,0,32,73L28.06,35.69a36.21,36.21,0,0,1-.21-4.36c0-10.5,4.17-18.08,12.38-22.53C48,4.62,58,2.5,70.14,2.5h2.5V20.37h-2.5c-7.12,0-12.81,1-16.9,3A8.56,8.56,0,0,0,48,31.82,7.77,7.77,0,0,0,48,33.07l0,.15,4.09,40a42.61,42.61,0,0,1,.31,5c0,7-1.78,12.48-5.28,16.35a21.6,21.6,0,0,1-7,5,21.34,21.34,0,0,1,7.08,4.84c3.46,3.68,5.22,9.12,5.22,16.19a54.68,54.68,0,0,1-.31,5.52l-4.1,40.06v.08a7.66,7.66,0,0,0-.07,1.25C48,170.4,48,179,70.14,179h2.5v17.87Z" style="fill:#ff931e"/><path d="M70.14,5V17.87q-11.31,0-18,3.22a11.06,11.06,0,0,0-6.68,10.73,10.15,10.15,0,0,0,.1,1.66l4.09,40a39.07,39.07,0,0,1,.3,4.78q0,9.56-4.64,14.67T31.43,99.69q9.45,1.66,14,6.49T50,120.66a50,50,0,0,1-.3,5.26l-4.09,40a10.07,10.07,0,0,0-.1,1.66q0,13.94,24.67,13.94v12.87q-17.64,0-28.72-6T30.35,168.05a32.65,32.65,0,0,1,.2-4.09l3.9-37.06a29.32,29.32,0,0,0,.2-3.9A15.44,15.44,0,0,0,32,113.64q-2.62-3.61-9.11-5.51T5,106.22V93.16q11.42,0,17.9-1.86T32,85.84a15.27,15.27,0,0,0,2.64-9.26,29.32,29.32,0,0,0-.2-3.9l-3.9-37.25a32.83,32.83,0,0,1-.2-4.1Q30.35,17,41.42,11T70.14,5m5-5h-5C57.59,0,47.12,2.22,39,6.6,30.09,11.45,25.35,20,25.35,31.33A38.46,38.46,0,0,0,25.58,36l3.9,37.19v.19a22.64,22.64,0,0,1,.15,3.19A10.59,10.59,0,0,1,28,82.9c-1.06,1.45-3.29,2.69-6.45,3.6C17.66,87.6,12.11,88.16,5,88.16H0v23.06H5c7.09,0,12.64.58,16.49,1.7,3.17.94,5.42,2.2,6.48,3.66A10.77,10.77,0,0,1,29.65,123a22.79,22.79,0,0,1-.15,3.18v.2l-3.89,37a36.24,36.24,0,0,0-.24,4.68c0,11.33,4.74,19.88,13.69,24.73,8.08,4.38,18.55,6.6,31.1,6.6h5V176.51h-5c-19.67,0-19.67-6.73-19.67-8.94a8.34,8.34,0,0,1,0-.86l0-.15v-.14l4.1-40a56.35,56.35,0,0,0,.32-5.77c0-7.72-2-13.75-5.89-17.91a22.25,22.25,0,0,0-3.79-3.18A22.44,22.44,0,0,0,49,96.27C53,91.93,55,85.86,55,78.24a44,44,0,0,0-.33-5.34L50.54,33v-.16l0-.15h0a7.62,7.62,0,0,1,0-.84c0-3.1,1.12-4.91,3.85-6.22,3.75-1.81,9.07-2.73,15.82-2.73h5V0Z" style="fill:#ff931e"/><path d="M232.57,196.88V179h2.5c22.17,0,22.17-8.61,22.17-11.44a8.43,8.43,0,0,0-.06-1.25l0-.16-4.1-40a54.84,54.84,0,0,1-.31-5.52c0-7.24,1.9-12.74,5.65-16.34a22.31,22.31,0,0,1,7.66-4.61,22.88,22.88,0,0,1-7.58-5c-3.8-3.91-5.73-9.48-5.73-16.56a41.14,41.14,0,0,1,.32-5l4.09-40,0-.07a8.55,8.55,0,0,0,.06-1.25A8.57,8.57,0,0,0,252,23.34c-4.1-2-9.78-3-16.91-3h-2.5V2.5h2.5c12.13,0,22.2,2.12,29.91,6.3,8.21,4.45,12.38,12,12.38,22.53a34,34,0,0,1-.22,4.43l-3.89,37.18c-.15,1.63-.18,2.51-.18,3,0,4.91,1.85,8.46,5.65,10.85,4.13,2.59,11.36,3.91,21.49,3.91h2.5v18.06h-2.5c-10.07,0-17.28,1.34-21.43,4-3.85,2.42-5.71,6-5.71,11,0,.45,0,1.33.18,3l3.9,37a34.33,34.33,0,0,1,.21,4.36c0,10.5-4.17,18.08-12.38,22.53-7.71,4.18-17.78,6.3-29.91,6.3Z"/><path d="M235.07,5q17.66,0,28.72,6t11.07,20.33a32.83,32.83,0,0,1-.2,4.1l-3.9,37.25c-.13,1.43-.19,2.5-.19,3.22q0,8.67,6.82,13t22.82,4.29v13.06q-15.9,0-22.77,4.35t-6.87,13.11c0,.72.06,1.79.19,3.22l3.9,37.06a32.65,32.65,0,0,1,.2,4.09q0,14.34-11.07,20.34t-28.72,6V181.51q24.68,0,24.67-13.94a10.07,10.07,0,0,0-.1-1.66l-4.09-40a50,50,0,0,1-.3-5.26q0-9.85,4.88-14.53t15.8-6.24Q265.29,98.14,260.28,93t-5-14.82a38.22,38.22,0,0,1,.3-4.68l4.09-40a10.15,10.15,0,0,0,.1-1.66,11.06,11.06,0,0,0-6.68-10.73q-6.67-3.22-18-3.22V5m0-5h-5V22.87h5c6.75,0,12.07.92,15.82,2.73,2.74,1.31,3.85,3.12,3.85,6.22a8.22,8.22,0,0,1,0,.85l0,.15V33L250.58,72.9a43.62,43.62,0,0,0-.33,5.24c0,7.75,2.17,13.91,6.44,18.31a22.52,22.52,0,0,0,3.84,3.14,21.76,21.76,0,0,0-3.86,2.93c-4.26,4.09-6.42,10.19-6.42,18.14a57.16,57.16,0,0,0,.32,5.78l4.1,40v.15l0,.15h0a8,8,0,0,1,0,.85c0,2.21,0,8.94-19.67,8.94h-5v22.87h5c12.55,0,23-2.22,31.1-6.6,8.95-4.85,13.69-13.4,13.69-24.73a38.46,38.46,0,0,0-.23-4.68l-3.89-37c-.15-1.63-.17-2.41-.17-2.73,0-4.16,1.4-6.9,4.54-8.89,2.58-1.62,8.16-3.57,20.1-3.57h5V88.16h-5c-12,0-17.6-1.92-20.16-3.53-3.1-1.95-4.48-4.64-4.48-8.73,0-.32,0-1.1.17-2.74L279.63,36a38.46,38.46,0,0,0,.23-4.68c0-11.33-4.74-19.88-13.69-24.73C258.09,2.22,247.62,0,235.07,0Z"/><path d="M88.62,147.62q-6.5,6.58-13.09,0t0-13.09L184.44,25.8a12.27,12.27,0,0,1,8.82-4.73q8.91.09,9,9v111.7q0,9.28-9.29,9.28t-9.28-9.28v-89Z"/><path d="M232.38,135.22a9.19,9.19,0,1,1-6.55-2.74A8.93,8.93,0,0,1,232.38,135.22Z" style="fill:#ff931e"/></g></g></svg>